# xmcd CD database file
#
# Track frame offsets:
# 150
# 9338
# 21717
# 37308
# 49850
# 61685
# 77125
# 89036
# 112146
# 124134
# 136583
# 148174
# 154084
#
# Disc length: 2390 seconds
# Revision: 18
# Processed by: cddbd v1.5.2PL0 Copyright (c) Steve Scherf et al.
# Submitted via: MusicBin 0.4
#
DISCID=b909540d
DTITLE=Beatles - Sgt. Pepper's Lonely Hearts Club Band (Mono)
DYEAR=1967
DGENRE=Rock
TTITLE0=Sgt. Pepper's Lonely Hearts Club Band (Mono)
TTITLE1=With A Little Help From My Friends (Mono)
TTITLE2=Lucy In The Sky With Diamonds (Mono)
TTITLE3=Getting Better (Mono)
TTITLE4=Fixing A Hole (Mono)
TTITLE5=She's Leaving Home (Mono)
TTITLE6=Being For The Benefit Of Mr. Kite! (Mono)
TTITLE7=Within You Without You (Mono)
TTITLE8=When I'm Sixty-Four (Mono)
TTITLE9=Lovely Rita (Mono)
TTITLE10=Good Morning Good Morning (Mono)
TTITLE11=Sgt. Pepper's Lonely Hearts Club Band {Reprise} (Mono)
TTITLE12=A Day In The Life (Mono)
EXTD=
EXTT0=
EXTT1=
EXTT2=
EXTT3=
EXTT4=
EXTT5=
EXTT6=
EXTT7=
EXTT8=
EXTT9=
EXTT10=
EXTT11=
EXTT12=
PLAYORDER=
